<?xml version="1.0" encoding="utf-8"?>
<!-- Generator: Adobe Illustrator 25.4.1, SVG Export Plug-In . SVG Version: 6.00 Build 0)  -->
<svg version="1.1" id="Layer_1" xmlns="http://www.w3.org/2000/svg" xmlns:xlink="http://www.w3.org/1999/xlink" x="0px" y="0px"
	 viewBox="0 0 841.9 366.5" style="enable-background:new 0 0 841.9 366.5;" xml:space="preserve">
<g>
	<path d="M110.1,158.4v77.8h-19v-43.9l-18.1,43.9H59L41,192.3v43.9H22v-77.8h21.7L66.1,212l22.3-53.6H110.1z"/>
	<path d="M191.5,162.4c6.1,3.4,10.9,8.1,14.4,14.2c3.5,6.1,5.3,12.9,5.3,20.5c0,7.6-1.8,14.5-5.3,20.6c-3.5,6.1-8.4,10.8-14.4,14.2
		c-6.1,3.4-12.8,5.1-20.1,5.1s-14-1.7-20.1-5.1c-6.1-3.4-10.9-8.1-14.5-14.2c-3.6-6.1-5.3-13-5.3-20.6c0-7.6,1.8-14.4,5.3-20.5
		c3.5-6.1,8.4-10.8,14.5-14.2c6.1-3.4,12.8-5.1,20.1-5.1S185.4,159,191.5,162.4z M156.3,180.8c-3.7,4.1-5.6,9.5-5.6,16.3
		c0,6.8,1.9,12.2,5.6,16.3c3.7,4.1,8.7,6.1,15,6.1c6.2,0,11.2-2,14.9-6.1c3.7-4.1,5.6-9.5,5.6-16.3c0-6.8-1.9-12.2-5.6-16.3
		s-8.7-6.1-14.9-6.1C165.1,174.7,160.1,176.7,156.3,180.8z"/>
	<path d="M245.2,158.4l19.3,59.3l19.3-59.3h20.2l-27.6,77.8h-23.7L225,158.4H245.2z"/>
	<path d="M341.2,172.5v16.7H366v14.4h-24.8v18.1h28.2v14.4h-47.1v-78h47.1v14.4H341.2z"/>
</g>
<g>
	<path d="M575.5,158.4v77.8h-19v-43.9l-18.1,43.9h-14.1l-18.1-43.9v43.9h-19v-77.8h21.7l22.4,53.6l22.3-53.6H575.5z"/>
	<path d="M656.9,162.4c6.1,3.4,10.9,8.1,14.4,14.2c3.5,6.1,5.3,12.9,5.3,20.5c0,7.6-1.8,14.5-5.3,20.6c-3.5,6.1-8.4,10.8-14.4,14.2
		c-6.1,3.4-12.8,5.1-20.1,5.1s-14-1.7-20.1-5.1c-6.1-3.4-10.9-8.1-14.5-14.2c-3.6-6.1-5.3-13-5.3-20.6c0-7.6,1.8-14.4,5.3-20.5
		c3.5-6.1,8.4-10.8,14.5-14.2c6.1-3.4,12.8-5.1,20.1-5.1S650.8,159,656.9,162.4z M621.7,180.8c-3.7,4.1-5.6,9.5-5.6,16.3
		c0,6.8,1.9,12.2,5.6,16.3c3.7,4.1,8.7,6.1,15,6.1c6.2,0,11.2-2,14.9-6.1c3.7-4.1,5.6-9.5,5.6-16.3c0-6.8-1.9-12.2-5.6-16.3
		s-8.7-6.1-14.9-6.1C630.5,174.7,625.5,176.7,621.7,180.8z"/>
	<path d="M710.6,158.4l19.3,59.3l19.3-59.3h20.2l-27.6,77.8H718l-27.6-77.8H710.6z"/>
	<path d="M806.6,172.5v16.7h24.8v14.4h-24.8v18.1h28.2v14.4h-47.1v-78h47.1v14.4H806.6z"/>
</g>
<g>
	<path d="M404.8,206.5c8-6.8,14.2-12.4,18.7-16.7c4.5-4.4,8.3-8.8,11.3-13.3c3-4.5,4.5-8.9,4.5-13.1c0-4.1-0.9-7.2-2.8-9.4
		c-1.9-2.1-4.6-3.2-8.3-3.2c-3.5,0-6.3,1.3-8.4,3.8c-2.1,2.5-3.1,6.1-3.1,10.8h-24.3c0-8,1.6-14.6,4.9-20.1
		c3.2-5.4,7.6-9.4,13.1-11.9c5.4-2.6,11.5-3.8,18.1-3.8c8.1,0,14.8,1.5,20.4,4.6c5.5,3,9.6,7,12.2,11.9s3.9,10.2,3.9,15.9
		c0,6.2-1.4,12-4.3,17.5c-2.9,5.5-6.3,10.4-10.4,14.8c-4.1,4.4-9.5,9.7-16.1,15.8c-0.1,0.1-2,1.8-5.6,5.2h38.3v20.5h-74V217
		L404.8,206.5z"/>
</g>
</svg>
