<svg width="730" height="97" viewBox="0 0 730 97" fill="none" xmlns="http://www.w3.org/2000/svg">
<path d="M79.1 25.8008V95.6008H62.1V56.2008L45.9 95.6008H33.2L17 56.2008V95.6008H0V25.8008H19.5L39.6 74.0008L59.6 25.8008H79.1Z" fill="white"/>
<path d="M152.102 29.4008C157.602 32.5008 161.902 36.7008 165.002 42.1008C168.102 47.5008 169.702 53.7008 169.702 60.5008C169.702 67.3008 168.102 73.5008 164.902 79.0008C161.702 84.5008 157.402 88.7008 152.002 91.8008C146.602 94.8008 140.602 96.4008 134.002 96.4008C127.402 96.4008 121.402 94.9008 115.902 91.8008C110.402 88.7008 106.102 84.5008 102.902 79.0008C99.7016 73.5008 98.1016 67.4008 98.1016 60.5008C98.1016 53.7008 99.7016 47.5008 102.902 42.1008C106.102 36.7008 110.402 32.4008 115.902 29.4008C121.402 26.4008 127.402 24.8008 134.002 24.8008C140.602 24.8008 146.602 26.3008 152.102 29.4008ZM120.602 45.9008C117.302 49.5008 115.602 54.4008 115.602 60.5008C115.602 66.6008 117.302 71.5008 120.602 75.1008C124.002 78.8008 128.402 80.6008 134.102 80.6008C139.702 80.6008 144.102 78.8008 147.502 75.1008C150.902 71.5008 152.502 66.6008 152.502 60.5008C152.502 54.4008 150.802 49.5008 147.502 45.9008C144.102 42.3008 139.702 40.4008 134.102 40.4008C128.402 40.4008 123.902 42.2008 120.602 45.9008Z" fill="white"/>
<path d="M200.399 25.8008L217.699 79.0008L234.999 25.8008H253.099L228.299 95.6008H206.999L182.199 25.8008H200.399Z" fill="white"/>
<path d="M286.5 38.5V53.5H308.8V66.4H286.5V82.6H311.8V95.5H269.5V25.5H311.8V38.4H286.5V38.5Z" fill="white"/>
<path d="M496.901 25.8008V95.6008H479.901V56.2008L463.701 95.6008H451.101L434.801 56.2008V95.6008H417.801V25.8008H437.301L457.401 74.0008L477.401 25.8008H496.901Z" fill="white"/>
<path d="M569.902 29.4008C575.402 32.5008 579.702 36.7008 582.802 42.1008C585.902 47.5008 587.502 53.7008 587.502 60.5008C587.502 67.3008 585.902 73.5008 582.702 79.0008C579.502 84.5008 575.202 88.7008 569.802 91.8008C564.402 94.8008 558.402 96.4008 551.802 96.4008C545.202 96.4008 539.202 94.9008 533.702 91.8008C528.202 88.7008 523.902 84.5008 520.702 79.0008C517.502 73.5008 515.902 67.4008 515.902 60.5008C515.902 53.7008 517.502 47.5008 520.702 42.1008C523.902 36.7008 528.202 32.4008 533.702 29.4008C539.202 26.4008 545.202 24.8008 551.802 24.8008C558.402 24.8008 564.402 26.3008 569.902 29.4008ZM538.302 45.9008C535.002 49.5008 533.302 54.4008 533.302 60.5008C533.302 66.6008 535.002 71.5008 538.302 75.1008C541.702 78.8008 546.102 80.6008 551.802 80.6008C557.402 80.6008 561.802 78.8008 565.202 75.1008C568.602 71.5008 570.202 66.6008 570.202 60.5008C570.202 54.4008 568.502 49.5008 565.202 45.9008C561.802 42.3008 557.402 40.4008 551.802 40.4008C546.202 40.4008 541.702 42.2008 538.302 45.9008Z" fill="white"/>
<path d="M618.102 25.8008L635.402 79.0008L652.702 25.8008H670.802L646.002 95.6008H624.702L599.902 25.8008H618.102Z" fill="white"/>
<path d="M704.301 38.5V53.5H726.601V66.4H704.301V82.6H729.601V95.5H687.301V25.5H729.601V38.4H704.301V38.5Z" fill="white"/>
<path d="M343.7 69C350.8 62.9 356.5 57.9 360.5 54C364.6 50.1 367.9 46.1 370.6 42C373.3 37.9 374.6 34 374.6 30.2C374.6 26.5 373.8 23.7 372.1 21.8C370.4 19.9 368 19 364.7 19C361.5 19 359 20.1 357.1 22.4C355.2 24.7 354.3 27.9 354.3 32.1H332.5C332.5 25 334 19 336.9 14.1C339.8 9.2 343.7 5.69999 348.6 3.39999C353.5 1.09999 358.9 0 364.8 0C372 0 378.1 1.4 383.1 4.1C388 6.8 391.7 10.4 394 14.8C396.3 19.2 397.5 24 397.5 29.1C397.5 34.7 396.2 39.9 393.7 44.8C391.1 49.7 388 54.1 384.4 58.1C380.7 62.1 375.9 66.8 369.9 72.3C369.8 72.4 368.1 73.9 364.9 76.9H399.3V95.2H332.8V78.4L343.7 69Z" fill="white"/>
</svg>
