<svg width="730" height="97" viewBox="0 0 730 97" fill="none" xmlns="http://www.w3.org/2000/svg">
<path d="M79.1253 26.3379V96.2125H62.0608V56.7845L45.8047 96.2125H33.2308L17.0645 56.7845V96.2125H0V26.3379H19.4894L39.6076 74.4777L59.6359 26.3379H79.1253Z" fill="#161E3F"/>
<path d="M152.232 29.9301C157.71 32.9837 162.021 37.2049 165.165 42.6835C168.308 48.1621 169.925 54.2694 169.925 61.0952C169.925 67.921 168.308 74.1181 165.165 79.5967C162.021 85.0753 157.62 89.2965 152.232 92.3502C146.753 95.4038 140.736 96.9306 134.179 96.9306C127.623 96.9306 121.605 95.4038 116.127 92.3502C110.648 89.2965 106.337 85.0753 103.104 79.5967C99.8706 74.1181 98.3438 67.921 98.3438 61.0952C98.3438 54.2694 99.9604 48.1621 103.104 42.6835C106.247 37.2049 110.648 32.9837 116.127 29.9301C121.605 26.8764 127.623 25.3496 134.179 25.3496C140.736 25.3496 146.753 26.8764 152.232 29.9301ZM120.617 46.4557C117.294 50.138 115.588 54.9879 115.588 61.0952C115.588 67.2025 117.294 72.0524 120.617 75.7347C123.94 79.4171 128.431 81.2133 134.089 81.2133C139.658 81.2133 144.148 79.4171 147.472 75.7347C150.795 72.0524 152.501 67.2025 152.501 61.0952C152.501 54.9879 150.795 50.138 147.472 46.4557C144.148 42.7733 139.658 40.9771 134.089 40.9771C128.521 40.9771 124.03 42.7733 120.617 46.4557Z" fill="#161E3F"/>
<path d="M200.463 26.3379L217.796 79.5971L235.13 26.3379H253.273L228.484 96.2125H207.199L182.32 26.3379H200.463Z" fill="#161E3F"/>
<path d="M286.686 39.0014V54.0002H308.959V66.9333H286.686V83.1895H312.013V96.1226H269.711V26.0684H312.013V39.0014H286.686Z" fill="#161E3F"/>
<path d="M497.117 26.3379V96.2125H480.053V56.7845L463.797 96.2125H451.133L434.877 56.7845V96.2125H417.812V26.3379H437.302L457.42 74.4777L477.448 26.3379H497.117Z" fill="#161E3F"/>
<path d="M570.224 29.9301C575.702 32.9837 580.013 37.2049 583.157 42.6835C586.3 48.1621 587.917 54.2694 587.917 61.0952C587.917 67.921 586.3 74.1181 583.157 79.5967C580.013 85.0753 575.613 89.2965 570.224 92.3502C564.745 95.4038 558.728 96.9306 552.171 96.9306C545.615 96.9306 539.598 95.4038 534.119 92.3502C528.64 89.2965 524.329 85.0753 521.096 79.5967C517.863 74.1181 516.336 67.921 516.336 61.0952C516.336 54.2694 517.953 48.1621 521.096 42.6835C524.239 37.2049 528.64 32.9837 534.119 29.9301C539.598 26.8764 545.615 25.3496 552.171 25.3496C558.728 25.3496 564.745 26.8764 570.224 29.9301ZM538.61 46.4557C535.286 50.138 533.58 54.9879 533.58 61.0952C533.58 67.2025 535.286 72.0524 538.61 75.7347C541.933 79.4171 546.423 81.2133 552.082 81.2133C557.65 81.2133 562.141 79.4171 565.464 75.7347C568.787 72.0524 570.493 67.2025 570.493 61.0952C570.493 54.9879 568.787 50.138 565.464 46.4557C562.141 42.7733 557.65 40.9771 552.082 40.9771C546.513 40.9771 542.022 42.7733 538.61 46.4557Z" fill="#161E3F"/>
<path d="M618.455 26.3379L635.789 79.5971L653.123 26.3379H671.265L646.476 96.2125H625.101L600.312 26.3379H618.455Z" fill="#161E3F"/>
<path d="M704.674 39.0014V54.0002H726.948V66.9333H704.674V83.1895H730.001V96.1226H687.699V26.0684H730.001V39.0014H704.674Z" fill="#161E3F"/>
<path d="M343.801 69.537C350.986 63.4297 356.554 58.4001 360.596 54.5382C364.638 50.5864 368.05 46.6346 370.745 42.593C373.439 38.5514 374.786 34.5997 374.786 30.8275C374.786 27.1452 373.978 24.361 372.272 22.3851C370.565 20.499 368.14 19.5111 364.817 19.5111C361.674 19.5111 359.159 20.6786 357.273 22.924C355.387 25.1693 354.489 28.4026 354.489 32.6238H332.664C332.664 25.4387 334.101 19.5111 337.065 14.5714C339.939 9.72145 343.891 6.12892 348.83 3.88359C353.68 1.54845 359.159 0.470703 365.087 0.470703C372.361 0.470703 378.379 1.81789 383.408 4.6021C388.348 7.29649 392.031 10.889 394.366 15.2899C396.701 19.6907 397.868 24.4508 397.868 29.5701C397.868 35.1385 396.611 40.3477 394.006 45.2874C391.402 50.2271 388.348 54.628 384.666 58.5798C380.983 62.5315 376.134 67.2916 370.206 72.7702C370.116 72.86 368.41 74.3869 365.176 77.4405H399.575V95.8522H333.113V78.9673L343.801 69.537Z" fill="#161E3F"/>
</svg>
