<?xml version="1.0" encoding="utf-8"?>
<!-- Generator: Adobe Illustrator 25.4.1, SVG Export Plug-In . SVG Version: 6.00 Build 0)  -->
<svg version="1.1" id="Layer_1" xmlns="http://www.w3.org/2000/svg" xmlns:xlink="http://www.w3.org/1999/xlink" x="0px" y="0px"
	 viewBox="0 0 841.9 366.5" style="enable-background:new 0 0 841.9 366.5;" xml:space="preserve">
<style type="text/css">
	.st0{fill:#FFFFFF;}
</style>
<g>
	<g>
		<path class="st0" d="M142.7,137.6v69.8h-17V168l-16.2,39.4H96.8L80.6,168v39.4h-17v-69.8h19.5l20.1,48.2l20-48.2H142.7z"/>
		<path class="st0" d="M215.7,141.2c5.5,3.1,9.8,7.3,12.9,12.7c3.1,5.4,4.7,11.6,4.7,18.4c0,6.8-1.6,13-4.8,18.5
			c-3.2,5.5-7.5,9.7-12.9,12.8c-5.4,3-11.4,4.6-18,4.6c-6.6,0-12.6-1.5-18.1-4.6c-5.5-3.1-9.8-7.3-13-12.8
			c-3.2-5.5-4.8-11.6-4.8-18.5c0-6.8,1.6-13,4.8-18.4c3.2-5.4,7.5-9.7,13-12.7c5.5-3,11.5-4.6,18.1-4.6
			C204.2,136.6,210.2,138.1,215.7,141.2z M184.2,157.7c-3.3,3.6-5,8.5-5,14.6c0,6.1,1.7,11,5,14.6c3.4,3.7,7.8,5.5,13.5,5.5
			c5.6,0,10-1.8,13.4-5.5c3.4-3.6,5-8.5,5-14.6c0-6.1-1.7-11-5-14.6c-3.4-3.6-7.8-5.5-13.4-5.5C192,152.2,187.5,154,184.2,157.7z"/>
		<path class="st0" d="M264,137.6l17.3,53.2l17.3-53.2h18.1l-24.8,69.8h-21.3l-24.8-69.8H264z"/>
		<path class="st0" d="M350.1,150.3v15h22.3v12.9h-22.3v16.2h25.3v12.9h-42.3v-70h42.3v12.9H350.1z"/>
	</g>
	<g>
		<path class="st0" d="M560.5,137.6v69.8h-17V168l-16.2,39.4h-12.6L498.4,168v39.4h-17v-69.8h19.5l20.1,48.2l20-48.2H560.5z"/>
		<path class="st0" d="M633.5,141.2c5.5,3.1,9.8,7.3,12.9,12.7c3.1,5.4,4.7,11.6,4.7,18.4c0,6.8-1.6,13-4.8,18.5
			c-3.2,5.5-7.5,9.7-12.9,12.8c-5.4,3-11.4,4.6-18,4.6s-12.6-1.5-18.1-4.6c-5.5-3.1-9.8-7.3-13-12.8c-3.2-5.5-4.8-11.6-4.8-18.5
			c0-6.8,1.6-13,4.8-18.4c3.2-5.4,7.5-9.7,13-12.7c5.5-3,11.5-4.6,18.1-4.6S628,138.1,633.5,141.2z M601.9,157.7
			c-3.3,3.6-5,8.5-5,14.6c0,6.1,1.7,11,5,14.6c3.4,3.7,7.8,5.5,13.5,5.5c5.6,0,10-1.8,13.4-5.5c3.4-3.6,5-8.5,5-14.6
			c0-6.1-1.7-11-5-14.6c-3.4-3.6-7.8-5.5-13.4-5.5C609.8,152.2,605.3,154,601.9,157.7z"/>
		<path class="st0" d="M681.7,137.6l17.3,53.2l17.3-53.2h18.1l-24.8,69.8h-21.3l-24.8-69.8H681.7z"/>
		<path class="st0" d="M767.9,150.3v15h22.3v12.9h-22.3v16.2h25.3v12.9h-42.3v-70h42.3v12.9H767.9z"/>
	</g>
	<g>
		<path class="st0" d="M407.3,180.8c7.1-6.1,12.8-11.1,16.8-15c4.1-3.9,7.4-7.9,10.1-12c2.7-4.1,4-8,4-11.8c0-3.7-0.8-6.5-2.5-8.4
			c-1.7-1.9-4.1-2.8-7.4-2.8c-3.2,0-5.7,1.1-7.6,3.4c-1.9,2.3-2.8,5.5-2.8,9.7h-21.8c0-7.1,1.5-13.1,4.4-18
			c2.9-4.9,6.8-8.4,11.7-10.7c4.9-2.3,10.3-3.4,16.2-3.4c7.2,0,13.3,1.4,18.3,4.1c4.9,2.7,8.6,6.3,10.9,10.7
			c2.3,4.4,3.5,9.2,3.5,14.3c0,5.6-1.3,10.8-3.8,15.7c-2.6,4.9-5.7,9.3-9.3,13.3c-3.7,4-8.5,8.7-14.5,14.2c-0.1,0.1-1.8,1.6-5,4.6
			h34.4V207h-66.5v-16.8L407.3,180.8z"/>
	</g>
</g>
</svg>
