<svg width="259" height="96" viewBox="0 0 259 96" fill="none" xmlns="http://www.w3.org/2000/svg">
<path d="M79.1 13V82.8H62.1V43.4L45.9 82.8H33.2L17 43.4V82.8H0V13H19.5L39.6 61.2L59.6 13H79.1Z" fill="white"/>
<path d="M258.1 13V82.8H241.1V43.4L224.9 82.8H212.2L196 43.4V82.8H179V13H198.5L218.6 61.2L238.6 13H258.1Z" fill="white"/>
<path d="M107.2 69C114.3 62.9 120 57.9 124 54C128.1 50.1 131.4 46.1 134.1 42C136.8 37.9 138.1 34 138.1 30.2C138.1 26.5 137.3 23.7 135.6 21.8C133.9 19.9 131.5 19 128.2 19C125 19 122.5 20.1 120.6 22.4C118.7 24.7 117.8 27.9 117.8 32.1H96C96 25 97.5 19 100.4 14.1C103.3 9.2 107.2 5.69999 112.1 3.39999C117 1.09999 122.4 0 128.3 0C135.5 0 141.6 1.4 146.6 4.1C151.5 6.8 155.2 10.4 157.5 14.8C159.8 19.2 161 24 161 29.1C161 34.7 159.7 39.9 157.2 44.8C154.6 49.7 151.5 54.1 147.9 58.1C144.2 62.1 139.4 66.8 133.4 72.3C133.3 72.4 131.6 73.9 128.4 76.9H162.8V95.2H96.3V78.4L107.2 69Z" fill="white"/>
</svg>
